# xmcd
#
# Track frame offsets:
# 182
# 17965
# 39112
# 52915
# 71965
# 84717
# 102120
# 121400
# 135730
#
# Disc length: 2065 seconds
#
#
# Revision: 0
# Processed by: cddbd v1.5.2PL0 Copyright (c) Steve Scherf et al.
# Submitted via: FreeRIP 2.951 
#
DISCID=75080f09
DTITLE=Sin Elefante - Sin Elefante
DYEAR=1997
DGENRE=Blues
TTITLE0=No Mas Blues
TTITLE1=Piece Of My Heart
TTITLE2=Lost My Babe
TTITLE3=Born Under A Bad Sign
TTITLE4=Baby What You Want Me To Do
TTITLE5=Hey Bartender
TTITLE6=Buscando A Peter Green
TTITLE7=Every Day I Have The Blues
TTITLE8=I Just Want To Make Love To You
EXTD=
EXTT0=
EXTT1=
EXTT2=
EXTT3=
EXTT4=
EXTT5=
EXTT6=
EXTT7=
EXTT8=
PLAYORDER=
